<svg width="64" height="64" viewBox="0 0 32 32" fill="none" xmlns="http://www.w3.org/2000/svg">
  <defs>
    <linearGradient id="tg" x1="4" y1="4" x2="28" y2="16" gradientUnits="userSpaceOnUse">
      <stop offset="0" stop-color="white" stop-opacity="0.22"/>
      <stop offset="1" stop-color="white" stop-opacity="0"/>
    </linearGradient>
  </defs>
  <polygon points="16,4 28,10 16,16 4,10" fill="#7C3AED"/>
  <polygon points="16,4 28,10 16,16 4,10" fill="url(#tg)"/>
  <polygon points="4,10 16,16 16,28 4,22" fill="#4C1D95"/>
  <polygon points="28,10 16,16 16,28 28,22" fill="#6D28D9"/>
  <polyline points="16,4 4,10 4,22 16,28 28,22 28,10 16,4" stroke="rgba(0,0,0,0.35)" stroke-width="0.6" fill="none"/>
  <line x1="16" y1="16" x2="4" y2="10" stroke="rgba(0,0,0,0.25)" stroke-width="0.4"/>
  <line x1="16" y1="16" x2="28" y2="10" stroke="rgba(0,0,0,0.25)" stroke-width="0.4"/>
  <line x1="16" y1="16" x2="16" y2="28" stroke="rgba(0,0,0,0.20)" stroke-width="0.4"/>
</svg>
